<svg width="316" height="50" viewBox="0 0 316 50" fill="none" xmlns="http://www.w3.org/2000/svg">
<path d="M154.714 20.751V36.653H151.606V26.3297L147.429 36.653H145.086L140.908 26.3297V36.653H137.801V20.751H141.316L146.257 32.5862L151.199 20.751H154.714Z" fill="white"/>
<path d="M163.629 20.751V30.605C163.629 31.6999 163.884 32.4819 164.444 33.0555C165.005 33.629 165.769 33.8897 166.737 33.8897C167.756 33.8897 168.52 33.629 169.08 33.0555C169.64 32.4819 169.895 31.6477 169.895 30.605V20.751H173.054V30.5529C173.054 31.9084 172.748 33.0555 172.188 33.9939C171.627 34.9324 170.863 35.6102 169.895 36.0794C168.927 36.5487 167.857 36.8094 166.686 36.8094C165.514 36.8094 164.495 36.5487 163.527 36.0794C162.61 35.6102 161.846 34.9324 161.286 33.9939C160.725 33.0555 160.471 31.9084 160.471 30.5529V20.751H163.629Z" fill="white"/>
<path d="M173.105 16.3711H169.946V19.0301H173.105V16.3711Z" fill="white"/>
<path d="M258.944 16.3711H255.785V19.0301H258.944V16.3711Z" fill="white"/>
<path d="M297.355 16.3711H294.196V19.0301H297.355V16.3711Z" fill="white"/>
<path d="M163.68 16.3711H160.521V19.0301H163.68V16.3711Z" fill="white"/>
<path d="M191.801 20.751V36.653H188.693V29.8751H182.02V36.653H178.912V20.751H182.02V27.2682H188.693V20.751H191.801Z" fill="white"/>
<path d="M208.765 21.5322C209.936 22.21 210.802 23.1485 211.465 24.3998C212.127 25.6511 212.433 27.0588 212.433 28.6751C212.433 30.2914 212.127 31.6991 211.465 32.9504C210.853 34.2017 209.936 35.1402 208.816 35.818C207.695 36.4958 206.37 36.8607 204.842 36.8607C203.365 36.8607 202.04 36.5479 200.92 35.9744C199.799 35.3487 198.882 34.4624 198.271 33.3154C197.659 32.1683 197.354 30.8128 197.354 29.1965C197.354 28.6751 197.404 28.1537 197.455 27.7366H209.07C209.019 26.4332 208.561 25.3904 207.797 24.6084C207.033 23.8263 206.014 23.4613 204.842 23.4613C203.925 23.4613 203.161 23.6699 202.499 24.087C201.837 24.5041 201.327 25.0776 201.072 25.8075H197.608C198.118 24.1913 198.984 22.94 200.257 22.0015C201.531 21.063 203.059 20.5938 204.842 20.5938C206.269 20.4895 207.593 20.8545 208.765 21.5322ZM207.695 32.8983C208.51 32.2205 208.918 31.3341 209.019 30.1871H200.512C200.563 31.3341 200.97 32.2205 201.735 32.8983C202.499 33.576 203.518 33.941 204.74 33.941C205.963 33.8889 206.931 33.576 207.695 32.8983Z" fill="white"/>
<path d="M231.129 36.653H228.021L220.991 25.7562V36.653H217.884V20.751H220.991L228.021 31.6999V20.751H231.129V36.653Z" fill="white"/>
<path d="M246.768 21.7416C247.991 22.4194 248.959 23.3057 249.621 24.5049C250.283 25.7041 250.64 27.1118 250.64 28.728C250.64 30.3443 250.283 31.6999 249.621 32.899C248.959 34.0982 247.991 35.0367 246.768 35.6623C245.546 36.3401 244.119 36.653 242.489 36.653H237.038V20.751H242.489C244.068 20.751 245.546 21.1159 246.768 21.7416ZM246.106 32.5862C246.972 31.6999 247.43 30.3964 247.43 28.728C247.43 27.0596 246.972 25.7562 246.106 24.8699C245.24 23.9314 243.966 23.4621 242.336 23.4621H240.146V33.9418H242.336C243.966 33.9418 245.24 33.4726 246.106 32.5862Z" fill="white"/>
<path d="M258.893 20.751V36.653H255.785V20.751H258.893Z" fill="white"/>
<path d="M267.247 36.236C266.381 35.8711 265.719 35.2975 265.209 34.6198C264.7 33.8898 264.445 33.0556 264.445 32.1171H267.757C267.808 32.7949 268.011 33.2642 268.419 33.6813C268.826 34.0462 269.387 34.2548 270.1 34.2548C270.813 34.2548 271.374 34.0984 271.832 33.7334C272.24 33.3684 272.443 32.8992 272.443 32.3257C272.443 31.8565 272.291 31.4915 272.036 31.1787C271.73 30.8658 271.425 30.6573 270.966 30.4487C270.559 30.2923 269.947 30.0838 269.234 29.8752C268.215 29.5624 267.4 29.2496 266.789 28.9889C266.177 28.6761 265.617 28.259 265.159 27.6333C264.7 27.0598 264.496 26.2256 264.496 25.235C264.496 24.2965 264.751 23.4623 265.209 22.7845C265.668 22.1067 266.33 21.5332 267.145 21.1682C267.96 20.8033 268.928 20.5947 269.998 20.5947C271.577 20.5947 272.902 21.0118 273.921 21.7939C274.94 22.576 275.449 23.723 275.602 25.1307H272.036C271.985 24.6093 271.781 24.1401 271.374 23.7751C270.966 23.4102 270.406 23.2537 269.692 23.2537C269.081 23.2537 268.623 23.4102 268.215 23.723C267.859 24.0358 267.655 24.505 267.655 25.1307C267.655 25.5478 267.808 25.9128 268.062 26.1735C268.317 26.4341 268.674 26.6948 269.081 26.8512C269.489 27.0077 270.049 27.2162 270.813 27.4769C271.832 27.7897 272.647 28.1025 273.258 28.3632C273.921 28.6761 274.43 29.1453 274.889 29.7188C275.347 30.3445 275.602 31.1265 275.602 32.1171C275.602 32.9513 275.398 33.7334 274.94 34.4633C274.532 35.1933 273.87 35.7668 273.055 36.1839C272.24 36.601 271.221 36.8095 270.1 36.8095C269.081 36.8095 268.113 36.601 267.247 36.236Z" fill="white"/>
<path d="M284.262 34.1504H289.356V36.653H281.104V20.751H284.211V34.1504H284.262Z" fill="white"/>
<path d="M297.304 20.751V36.653H294.196V20.751H297.304Z" fill="white"/>
<path d="M311.975 36.653L306.32 29.5622V36.653H303.213V20.751H306.32V27.8938L311.975 20.751H315.745L309.326 28.6238L315.898 36.653H311.975Z" fill="white"/>
<path d="M78.6056 21.0635H67.8057V46.3502H78.6056V21.0635Z" fill="white"/>
<path d="M58.8395 35.2971C57.8207 35.2971 56.8527 35.7142 56.1905 36.4963C55.4773 37.3826 54.4075 37.9561 53.1848 37.9561C51.9622 37.9561 50.8924 37.3826 50.1792 36.4963C49.5679 35.7142 48.549 35.2971 47.5302 35.2971H39.8378V38.2689H35.4566V37.4347H38.717V33.5244H34.8963V35.2971H28.7831V39.7288H24.402V38.2689H27.3567V33.7851H22.9756V38.2689H23.2812V40.3544C23.2812 43.6391 25.8793 46.2981 29.1397 46.2981H52.3698C58.2282 46.2981 62.9659 41.4493 62.9659 35.4535V35.245H58.8395V35.2971ZM33.7755 39.7809H30.668V36.6005H33.7755V39.7809ZM43.6585 44.3169H39.9906V40.563H43.6585V44.3169Z" fill="white"/>
<path d="M117.577 6.83008H33.0114C31.8397 6.83008 30.7189 7.03863 29.6491 7.40359V10.7404H24.8605C23.9944 11.7832 23.3831 12.9823 22.9756 14.2858H26.4907V17.8833H27.3057C28.2227 17.8833 29.0888 17.4662 29.751 16.8405C30.4642 16.1106 31.3812 15.6935 32.451 15.6935C33.5208 15.6935 34.4887 16.1106 35.151 16.8405C35.8132 17.5183 36.6793 17.8833 37.5962 17.8833H87.8261C88.7431 17.8833 89.6091 17.5183 90.2204 16.8405C90.9336 16.1106 91.9016 15.6413 92.9714 15.6413C94.0412 15.6413 95.0091 16.1106 95.7223 16.8405C96.3336 17.5183 97.1996 17.8833 98.1166 17.8833H123.384V12.7738C123.384 9.4891 120.786 6.83008 117.577 6.83008ZM36.3227 13.6601H33.2151V10.4797H36.3227V13.6601Z" fill="white"/>
<path d="M116.762 36.496C116.049 37.3824 114.979 37.9559 113.756 37.9559C112.534 37.9559 111.464 37.3824 110.751 36.496C110.139 35.714 109.12 35.2969 108.102 35.2969H83.8018V40.3542C83.8018 43.6389 86.3999 46.3501 89.6602 46.3501H112.89C118.749 46.3501 123.486 41.5013 123.486 35.5054V35.2969H119.36C118.392 35.2969 117.373 35.714 116.762 36.496Z" fill="white"/>
<path d="M93.6333 32.1167H108.611C109.477 32.1167 110.394 31.8038 111.005 31.1782C111.718 30.5004 112.635 30.0833 113.705 30.0833C114.724 30.0833 115.692 30.5004 116.405 31.1782C117.067 31.8038 117.933 32.1167 118.799 32.1167H123.333V31.9081C123.333 25.9123 118.595 21.0635 112.737 21.0635H98.371C97.4031 21.0635 96.4861 21.5327 95.8238 22.2626C95.1106 23.0447 94.0918 23.5661 92.971 23.5661C91.8503 23.5661 90.7805 23.0447 90.1182 22.2626C89.4559 21.5327 88.539 21.0635 87.571 21.0635H83.0371V21.272C83.0371 27.2679 87.8258 32.1167 93.6333 32.1167Z" fill="white"/>
<path d="M20.2246 10.6357H16.8623V14.0768H20.2246V10.6357Z" fill="white"/>
<path d="M10.5966 10.6357H7.23438V14.0768H10.5966V10.6357Z" fill="white"/>
<path d="M28.2229 9.1766V8.02957V5.162V4.64062H23.8418V5.162V9.1766H26.4908H28.2229Z" fill="white"/>
<path d="M24.8604 18.7695V17.8832V15.4327H22.619H22.0586H21.1416V19.2388H24.8604V18.7695Z" fill="white"/>
<path d="M22.2621 27.6329H17.2188V32.0125H22.2621V27.6329Z" fill="white"/>
<path d="M13.3471 31.335H9.52637V35.2453H13.3471V31.335Z" fill="white"/>
<path d="M17.2192 35.3496H13.3984V39.2599H17.2192V35.3496Z" fill="white"/>
<path d="M21.3964 40.5635H17.7285V44.3174H21.3964V40.5635Z" fill="white"/>
<path d="M7.08147 35.3496H3.26074V39.2599H7.08147V35.3496Z" fill="white"/>
<path d="M18.6456 19.5518H14.9268V23.3578H18.6456V19.5518Z" fill="white"/>
<path d="M8.91514 19.5516H5.19629V23.3577H8.91514V19.5516Z" fill="white"/>
<path d="M14.8243 15.7451H11.1055V19.5512H14.8243V15.7451Z" fill="white"/>
<path d="M14.8243 23.3574H11.1055V27.1635H14.8243V23.3574Z" fill="white"/>
<path d="M62.8126 31.9085V32.117H58.2786C57.4126 32.117 56.4956 31.8042 55.8843 31.1786C55.1711 30.5008 54.2541 30.0837 53.1843 30.0837C52.1145 30.0837 51.1976 30.5008 50.4844 31.1786C49.8221 31.8042 48.9561 32.117 48.09 32.117H37.2901V29.8751H34.1826V32.117H33.1128C32.7562 32.117 32.3996 32.117 32.0939 32.0649V26.3298H26.2864V27.5289H31.0241V32.0128H26.0317V29.3016C23.8921 27.3204 22.5166 24.4528 22.5166 21.2203V21.0117H26.9996C27.9675 21.0117 28.8845 21.481 29.5467 22.2109C30.26 22.9929 31.2788 23.5143 32.3996 23.5143C33.5203 23.5143 34.5901 22.9929 35.2524 22.2109C35.9146 21.481 36.8316 21.0117 37.7995 21.0117H52.1655C58.0749 21.0639 62.8126 25.9127 62.8126 31.9085Z" fill="white"/>
</svg>
