<svg width="587" height="77" viewBox="0 0 587 77" fill="none" xmlns="http://www.w3.org/2000/svg">
<path d="M141.35 30.0898H121.1V76.4199H141.35V30.0898Z" fill="#1BAFBF"/>
<path d="M104.26 56.1602C102.37 56.1602 100.52 56.9202 99.33 58.3802C98 60.0202 95.97 61.0702 93.7 61.0702C91.43 61.0702 89.39 60.0202 88.07 58.3802C86.88 56.9202 85.04 56.1602 83.14 56.1602H68.63V61.6202H60.39V60.1202H66.51V52.9502H59.34V56.1502H47.92V64.2502H39.67V61.6102H45.23V53.3702H36.98V61.6102H37.55V65.4502C37.55 71.5002 42.46 76.3902 48.51 76.3902H92.06C103.05 76.3902 111.94 67.4802 111.94 56.5102V56.1502H104.26V56.1602ZM57.25 64.3202H51.43V58.5102H57.25V64.3202ZM75.79 72.6802H68.88V65.7702H75.79V72.6802Z" fill="#1BAFBF"/>
<path d="M214.43 4.00977H55.7897C53.5997 4.00977 51.4797 4.36977 49.5197 5.02977V11.1798H40.5097C38.9197 13.0698 37.6997 15.2498 36.9297 17.6398H43.4897V24.2698H45.0597C46.7797 24.2698 48.3897 23.5498 49.6097 22.3398C50.9197 21.0298 52.7097 20.2198 54.7097 20.2198C56.7097 20.2198 58.5197 21.0298 59.8097 22.3198C61.0297 23.5398 62.6397 24.2698 64.3597 24.2698H158.6C160.29 24.2698 161.91 23.5798 163.1 22.3798C164.41 21.0498 166.24 20.2298 168.25 20.2298C170.26 20.2298 172.09 21.0598 173.4 22.3798C174.59 23.5898 176.21 24.2698 177.9 24.2698H225.28V14.8598C225.28 8.85977 220.42 4.00977 214.44 4.00977H214.43ZM61.9797 16.4498H56.1697V10.6398H61.9797V16.4498Z" fill="#1BAFBF"/>
<path d="M212.86 58.3802C211.53 60.0202 209.5 61.0702 207.23 61.0702C204.96 61.0702 202.93 60.0202 201.6 58.3802C200.41 56.9102 198.56 56.1602 196.67 56.1602H151.09V65.4601C151.09 71.5101 155.99 76.4102 162.04 76.4102H205.6C216.58 76.4102 225.49 67.5101 225.49 56.5201V56.1602H217.8C215.91 56.1602 214.06 56.9202 212.87 58.3802H212.86Z" fill="#1BAFBF"/>
<path d="M169.55 50.3398H197.69C199.36 50.3398 201 49.7698 202.2 48.6098C203.5 47.3498 205.28 46.5798 207.23 46.5798C209.18 46.5798 210.96 47.3498 212.26 48.6098C213.46 49.7698 215.11 50.3398 216.77 50.3398H225.27V49.9798C225.27 38.9998 216.37 30.0898 205.38 30.0898H178.43C176.58 30.0898 174.86 30.9398 173.63 32.3098C172.31 33.7898 170.38 34.7099 168.24 34.7099C166.1 34.7099 164.18 33.7798 162.85 32.3098C161.62 30.9298 159.9 30.0898 158.05 30.0898H149.66V30.4498C149.66 41.4298 158.56 50.3398 169.55 50.3398Z" fill="#1BAFBF"/>
<path d="M31.7997 10.9697H25.4697V17.2997H31.7997V10.9697Z" fill="#1BAFBF"/>
<path d="M13.7402 10.9697H7.41016V17.2997H13.7402V10.9697Z" fill="#1BAFBF"/>
<path d="M46.8001 8.23V6.16V0.929993V0H38.5601V0.929993V8.23H43.5401H46.8001Z" fill="#1BAFBF"/>
<path d="M40.46 25.8703V24.2703V19.7803H36.32H35.24H33.5V26.7403H40.46V25.8703Z" fill="#1BAFBF"/>
<path d="M35.6501 42.0898H26.1401V50.1498H35.6501V42.0898Z" fill="#1BAFBF"/>
<path d="M18.9498 48.9004H11.7598V56.0904H18.9498V48.9004Z" fill="#1BAFBF"/>
<path d="M26.1397 56.2402H18.9497V63.4302H26.1397V56.2402Z" fill="#1BAFBF"/>
<path d="M34.0199 65.7695H27.1099V72.6795H34.0199V65.7695Z" fill="#1BAFBF"/>
<path d="M7.19 56.2402H0V63.4302H7.19V56.2402Z" fill="#1BAFBF"/>
<path d="M28.8001 27.3203H21.8301V34.2903H28.8001V27.3203Z" fill="#1BAFBF"/>
<path d="M10.5701 27.3203H3.6001V34.2903H10.5701V27.3203Z" fill="#1BAFBF"/>
<path d="M21.6897 20.3398H14.7197V27.3098H21.6897V20.3398Z" fill="#1BAFBF"/>
<path d="M21.6897 34.29H14.7197V41.26H21.6897V34.29Z" fill="#1BAFBF"/>
<path d="M111.73 49.9796V50.3396H103.24C101.57 50.3396 99.9299 49.7696 98.7299 48.6196C97.4199 47.3496 95.6499 46.5896 93.6999 46.5896C91.7499 46.5896 89.9799 47.3496 88.6699 48.6196C87.4599 49.7696 85.8299 50.3396 84.1599 50.3396H63.8299V46.2196H58.0199V50.3396H56.0199C55.3699 50.3396 54.7099 50.3096 54.0699 50.2396V39.6996H43.1299V41.9096H51.9999V50.1596H42.6599V45.2196C38.6499 41.5696 36.1099 36.3096 36.1099 30.4596V30.0996H44.5199C46.3599 30.0996 48.0899 30.9596 49.3099 32.3396C50.6399 33.7996 52.5699 34.7296 54.6999 34.7296C56.8299 34.7296 58.7699 33.7996 60.0899 32.3396C61.3099 30.9596 63.0399 30.0996 64.8799 30.0996H91.8399C102.81 30.0996 111.72 39.0096 111.72 49.9996L111.73 49.9796Z" fill="#1BAFBF"/>
<path d="M284.04 12.1992V41.3192H278.2V22.3792L270.4 41.3192H265.98L258.14 22.3792V41.3192H252.3V12.1992H258.93L268.19 33.8492L277.45 12.1992H284.04Z" fill="#1BAFBF"/>
<path d="M300.85 12.1992V30.2192C300.85 32.1992 301.36 33.6992 302.39 34.7492C303.42 35.7892 304.86 36.3092 306.73 36.3092C308.6 36.3092 310.08 35.7892 311.11 34.7492C312.14 33.7092 312.65 32.1992 312.65 30.2192V12.1992H318.53V30.1792C318.53 32.6592 318 34.7492 316.92 36.4592C315.85 38.1692 314.42 39.4592 312.62 40.3192C310.83 41.1792 308.83 41.6092 306.63 41.6092C304.43 41.6092 302.49 41.1792 300.73 40.3192C298.96 39.4592 297.57 38.1692 296.54 36.4592C295.51 34.7492 295 32.6592 295 30.1792V12.1992H300.84H300.85Z" fill="#1BAFBF"/>
<path d="M318.53 4.17969H312.65V9.08969H318.53V4.17969Z" fill="#1BAFBF"/>
<path d="M479.56 4.17969H473.68V9.08969H479.56V4.17969Z" fill="#1BAFBF"/>
<path d="M551.6 4.17969H545.72V9.08969H551.6V4.17969Z" fill="#1BAFBF"/>
<path d="M300.89 4.17969H295.01V9.08969H300.89V4.17969Z" fill="#1BAFBF"/>
<path d="M353.62 12.1992V41.3192H347.78V28.9292H335.31V41.3192H329.47V12.1992H335.31V24.1692H347.78V12.1992H353.62Z" fill="#1BAFBF"/>
<path d="M385.46 13.58C387.61 14.83 389.29 16.59 390.49 18.86C391.69 21.13 392.28 23.7299 392.28 26.6799C392.28 29.6299 391.69 32.2299 390.51 34.4799C389.33 36.7299 387.67 38.48 385.53 39.74C383.39 40.99 380.91 41.6199 378.1 41.6199C375.29 41.6199 372.87 41.06 370.74 39.95C368.61 38.84 366.96 37.22 365.8 35.11C364.63 33 364.05 30.48 364.05 27.56C364.05 26.56 364.11 25.66 364.22 24.85H386.04C385.9 22.46 385.1 20.55 383.64 19.14C382.18 17.72 380.34 17.0099 378.11 17.0099C376.41 17.0099 374.94 17.39 373.69 18.16C372.44 18.92 371.53 19.99 370.98 21.35H364.47C365.39 18.43 367.05 16.09 369.45 14.34C371.86 12.59 374.73 11.71 378.06 11.71C380.84 11.71 383.31 12.34 385.46 13.59V13.58ZM383.5 34.44C384.99 33.22 385.83 31.5499 386.02 29.4299H370.09C370.17 31.4899 370.95 33.14 372.43 34.39C373.9 35.64 375.78 36.27 378.06 36.27C380.2 36.27 382.02 35.66 383.5 34.44Z" fill="#1BAFBF"/>
<path d="M427.45 41.3202H421.61L408.39 21.3401V41.3202H402.55V12.1602H408.39L421.61 32.1801V12.1602H427.45V41.3202Z" fill="#1BAFBF"/>
<path d="M456.75 13.9992C459.07 15.1992 460.87 16.8992 462.13 19.1092C463.4 21.3192 464.03 23.8892 464.03 26.8092C464.03 29.7292 463.4 32.2792 462.13 34.4592C460.86 36.6392 459.07 38.3292 456.75 39.5292C454.43 40.7292 451.74 41.3192 448.68 41.3192H438.5V12.1992H448.68C451.74 12.1992 454.43 12.7992 456.75 13.9892V13.9992ZM455.56 33.8492C457.23 32.1792 458.06 29.8292 458.06 26.7992C458.06 23.7692 457.23 21.3992 455.56 19.6892C453.89 17.9792 451.53 17.1192 448.47 17.1192H444.34V36.3492H448.47C451.53 36.3492 453.89 35.5192 455.56 33.8492Z" fill="#1BAFBF"/>
<path d="M479.54 12.1992V41.3192H473.7V12.1992H479.54Z" fill="#1BAFBF"/>
<path d="M495.17 40.5696C493.54 39.8796 492.26 38.8696 491.31 37.5696C490.36 36.2596 489.88 34.7196 489.85 32.9396H496.11C496.19 34.1396 496.62 35.0796 497.38 35.7796C498.14 36.4796 499.19 36.8196 500.53 36.8196C501.87 36.8196 502.96 36.4896 503.74 35.8396C504.52 35.1896 504.91 34.3296 504.91 33.2796C504.91 32.4196 504.65 31.7096 504.12 31.1496C503.59 30.5896 502.93 30.1596 502.14 29.8396C501.35 29.5196 500.26 29.1696 498.87 28.7796C496.98 28.2196 495.44 27.6696 494.26 27.1296C493.08 26.5896 492.06 25.7696 491.21 24.6696C490.36 23.5696 489.94 22.1096 489.94 20.2696C489.94 18.5496 490.37 17.0396 491.23 15.7696C492.09 14.4896 493.3 13.5096 494.86 12.8296C496.42 12.1496 498.2 11.8096 500.2 11.8096C503.2 11.8096 505.64 12.5396 507.52 13.9996C509.4 15.4596 510.43 17.4996 510.63 20.1096H504.21C504.15 19.1096 503.73 18.2796 502.94 17.6296C502.15 16.9796 501.1 16.6496 499.79 16.6496C498.65 16.6496 497.74 16.9396 497.06 17.5296C496.38 18.1096 496.04 18.9596 496.04 20.0696C496.04 20.8496 496.3 21.4996 496.81 22.0096C497.32 22.5196 497.96 22.9396 498.73 23.2596C499.49 23.5796 500.57 23.9496 501.96 24.3596C503.85 24.9196 505.4 25.4696 506.59 26.0296C507.79 26.5896 508.81 27.4196 509.68 28.5296C510.54 29.6396 510.97 31.0996 510.97 32.9096C510.97 34.4696 510.57 35.9096 509.76 37.2496C508.95 38.5796 507.77 39.6496 506.21 40.4396C504.65 41.2296 502.8 41.6296 500.66 41.6296C498.63 41.6296 496.8 41.2796 495.17 40.5896V40.5696Z" fill="#1BAFBF"/>
<path d="M527.14 36.6892H536.74V41.3192H521.31V12.1992H527.15V36.6792L527.14 36.6892Z" fill="#1BAFBF"/>
<path d="M551.58 12.1992V41.3192H545.74V12.1992H551.58Z" fill="#1BAFBF"/>
<path d="M579.07 41.3192L568.47 28.3492V41.3192H562.63V12.1992H568.47V25.2592L579.07 12.1992H586.12L574.11 26.6292L586.46 41.3092H579.08L579.07 41.3192Z" fill="#1BAFBF"/>
<path d="M259.59 69.2493H252.38V56.5693H259.59V58.4693H254.65V61.6993H259.27V63.5993H254.65V67.3293H259.59V69.2493Z" fill="#505052"/>
<path d="M271.92 69.2493H269.33L266.22 64.1893L263.09 69.2493H260.67L264.88 62.6793L260.94 56.5693H263.44L266.32 61.2993L269.18 56.5693H271.61L267.65 62.7693L271.91 69.2493H271.92Z" fill="#505052"/>
<path d="M277.37 56.5596C279.02 56.5596 280.22 56.8996 280.97 57.5896C281.72 58.2796 282.1 59.2196 282.1 60.4296C282.1 61.1496 281.95 61.8296 281.64 62.4596C281.33 63.0896 280.81 63.5996 280.09 63.9896C279.37 64.3796 278.38 64.5696 277.13 64.5696H275.87V69.2396H273.6V56.5596H277.38H277.37ZM277.23 58.4496H275.86V62.6896H276.89C277.81 62.6896 278.53 62.5196 279.03 62.1796C279.53 61.8396 279.79 61.2896 279.79 60.5196C279.79 59.8196 279.58 59.2996 279.17 58.9596C278.76 58.6196 278.11 58.4496 277.23 58.4496Z" fill="#505052"/>
<path d="M291.8 69.2493H284.59V56.5693H291.8V58.4693H286.86V61.6993H291.48V63.5993H286.86V67.3293H291.8V69.2493Z" fill="#505052"/>
<path d="M298.1 56.5596C299.77 56.5596 301.01 56.8696 301.8 57.4796C302.59 58.0896 303 59.0296 303 60.2896C303 60.9096 302.89 61.4296 302.65 61.8696C302.42 62.3096 302.12 62.6696 301.75 62.9596C301.38 63.2496 300.99 63.4796 300.56 63.6596L304.2 69.2396H301.64L298.6 64.2296H296.75V69.2396H294.48V56.5596H298.09H298.1ZM297.96 58.4696H296.77V62.3796H298.03C298.97 62.3796 299.64 62.2096 300.06 61.8696C300.48 61.5296 300.69 61.0296 300.69 60.3696C300.69 59.7096 300.47 59.1896 300.02 58.8996C299.58 58.6096 298.89 58.4596 297.95 58.4596L297.96 58.4696Z" fill="#505052"/>
<path d="M310.52 69.2493H308.25V58.4893H304.61V56.5693H314.17V58.4893H310.53V69.2493H310.52Z" fill="#505052"/>
<path d="M323.47 65.7794C323.47 66.9094 323.06 67.7894 322.24 68.4494C321.42 69.1094 320.29 69.4294 318.85 69.4294C317.41 69.4294 316.27 69.1894 315.3 68.7194V66.5894C315.83 66.8294 316.42 67.0394 317.06 67.2394C317.7 67.4394 318.35 67.5294 319.01 67.5294C319.77 67.5294 320.33 67.3794 320.68 67.0894C321.03 66.7994 321.21 66.3994 321.21 65.9194C321.21 65.3894 320.98 64.9694 320.54 64.6594C320.09 64.3494 319.43 64.0194 318.57 63.6494C318.05 63.4194 317.55 63.1594 317.08 62.8494C316.61 62.5394 316.22 62.1494 315.91 61.6794C315.6 61.2094 315.45 60.5994 315.45 59.8694C315.45 58.7794 315.83 57.9294 316.6 57.3194C317.36 56.7094 318.39 56.3994 319.67 56.3994C320.34 56.3994 320.98 56.4694 321.56 56.6094C322.15 56.7494 322.74 56.9494 323.33 57.2094L322.6 59.0394C322.07 58.8094 321.56 58.6394 321.08 58.5094C320.6 58.3794 320.11 58.3094 319.6 58.3094C318.98 58.3094 318.52 58.4494 318.2 58.7294C317.88 59.0094 317.72 59.3694 317.72 59.8094C317.72 60.1694 317.81 60.4594 317.99 60.6994C318.17 60.9394 318.44 61.1594 318.82 61.3594C319.19 61.5594 319.67 61.7894 320.27 62.0494C320.94 62.3494 321.53 62.6494 322.01 62.9694C322.49 63.2894 322.86 63.6694 323.12 64.1294C323.37 64.5794 323.5 65.1394 323.5 65.7994L323.47 65.7794Z" fill="#505052"/>
<path d="M334.78 69.2496H329.45V67.9496L330.98 67.3796V58.4496L329.45 57.8596V56.5596H334.78V57.8596L333.25 58.4496V67.3796L334.78 67.9496V69.2496Z" fill="#505052"/>
<path d="M347.84 69.2493H345.02L339.02 59.2993H338.95C338.99 59.8293 339.02 60.4093 339.05 61.0093C339.08 61.6193 339.1 62.2293 339.11 62.8493V69.2493H337.07V56.5693H339.88L345.87 66.4493H345.92C345.9 65.9793 345.87 65.4293 345.85 64.8093C345.83 64.1893 345.81 63.5993 345.8 63.0193V56.5693H347.86V69.2493H347.84Z" fill="#505052"/>
<path d="M360.06 69.2496H354.73V67.9496L356.26 67.3796V58.4496L354.73 57.8596V56.5596H360.06V57.8596L358.53 58.4496V67.3796L360.06 67.9496V69.2496Z" fill="#505052"/>
<path d="M373.12 69.2493H370.3L364.3 59.2993H364.23C364.27 59.8293 364.3 60.4093 364.33 61.0093C364.36 61.6193 364.38 62.2293 364.39 62.8493V69.2493H362.35V56.5693H365.16L371.15 66.4493H371.2C371.18 65.9793 371.15 65.4293 371.13 64.8093C371.11 64.1893 371.09 63.5993 371.08 63.0193V56.5693H373.14V69.2493H373.12Z" fill="#505052"/>
<path d="M386.8 62.7793C386.8 64.9193 386.2 66.5393 385.01 67.6193C383.81 68.6993 382.14 69.2493 380 69.2493H376.43V56.5693H380.37C381.67 56.5693 382.81 56.8093 383.77 57.2793C384.73 57.7493 385.48 58.4493 386.01 59.3693C386.54 60.2893 386.8 61.4293 386.8 62.7893V62.7793ZM384.42 62.8493C384.42 61.3293 384.07 60.2193 383.38 59.5093C382.69 58.7993 381.68 58.4393 380.37 58.4393H378.7V67.3393H380.07C382.97 67.3393 384.42 65.8393 384.42 62.8493Z" fill="#505052"/>
<path d="M399.55 64.7696C399.55 65.6496 399.36 66.4396 398.99 67.1396C398.62 67.8396 398.05 68.3996 397.29 68.8096C396.53 69.2196 395.57 69.4196 394.41 69.4196C392.76 69.4196 391.51 68.9896 390.66 68.1296C389.81 67.2696 389.38 66.1396 389.38 64.7296V56.5596H391.65V64.4996C391.65 65.5396 391.89 66.2996 392.36 66.7696C392.83 67.2396 393.54 67.4796 394.47 67.4796C395.45 67.4796 396.17 67.2196 396.61 66.7096C397.05 66.1996 397.28 65.4496 397.28 64.4796V56.5596H399.54V64.7696H399.55Z" fill="#505052"/>
<path d="M410.14 65.7794C410.14 66.9094 409.73 67.7894 408.91 68.4494C408.09 69.1094 406.96 69.4294 405.52 69.4294C404.08 69.4294 402.94 69.1894 401.97 68.7194V66.5894C402.5 66.8294 403.09 67.0394 403.73 67.2394C404.37 67.4394 405.02 67.5294 405.68 67.5294C406.44 67.5294 407 67.3794 407.35 67.0894C407.7 66.7994 407.88 66.3994 407.88 65.9194C407.88 65.3894 407.65 64.9694 407.21 64.6594C406.76 64.3494 406.1 64.0194 405.24 63.6494C404.72 63.4194 404.22 63.1594 403.75 62.8494C403.28 62.5394 402.89 62.1494 402.58 61.6794C402.27 61.2094 402.12 60.5994 402.12 59.8694C402.12 58.7794 402.5 57.9294 403.27 57.3194C404.03 56.7094 405.06 56.3994 406.34 56.3994C407.01 56.3994 407.65 56.4694 408.23 56.6094C408.82 56.7494 409.41 56.9494 410 57.2094L409.27 59.0394C408.74 58.8094 408.23 58.6394 407.75 58.5094C407.27 58.3794 406.78 58.3094 406.27 58.3094C405.65 58.3094 405.19 58.4494 404.87 58.7294C404.55 59.0094 404.39 59.3694 404.39 59.8094C404.39 60.1694 404.48 60.4594 404.66 60.6994C404.84 60.9394 405.11 61.1594 405.49 61.3594C405.86 61.5594 406.34 61.7894 406.94 62.0494C407.61 62.3494 408.2 62.6494 408.68 62.9694C409.16 63.2894 409.53 63.6694 409.79 64.1294C410.04 64.5794 410.17 65.1394 410.17 65.7994L410.14 65.7794Z" fill="#505052"/>
<path d="M417.09 69.2493H414.82V58.4893H411.18V56.5693H420.74V58.4893H417.1V69.2493H417.09Z" fill="#505052"/>
<path d="M426.27 56.5596C427.94 56.5596 429.18 56.8696 429.97 57.4796C430.76 58.0896 431.17 59.0296 431.17 60.2896C431.17 60.9096 431.06 61.4296 430.82 61.8696C430.59 62.3096 430.29 62.6696 429.92 62.9596C429.55 63.2496 429.16 63.4796 428.73 63.6596L432.37 69.2396H429.81L426.77 64.2296H424.92V69.2396H422.65V56.5596H426.26H426.27ZM426.13 58.4696H424.94V62.3796H426.2C427.14 62.3796 427.81 62.2096 428.23 61.8696C428.65 61.5296 428.86 61.0296 428.86 60.3696C428.86 59.7096 428.64 59.1896 428.19 58.8996C427.75 58.6096 427.06 58.4596 426.12 58.4596L426.13 58.4696Z" fill="#505052"/>
<path d="M438.44 69.2496H433.11V67.9496L434.64 67.3796V58.4496L433.11 57.8596V56.5596H438.44V57.8596L436.91 58.4496V67.3796L438.44 67.9496V69.2496Z" fill="#505052"/>
<path d="M448.55 69.2498L447.4 65.8898H442.62L441.48 69.2498H439.06L443.71 56.5098H446.3L450.95 69.2498H448.53H448.55ZM445.7 60.6698C445.65 60.5098 445.58 60.2798 445.49 59.9998C445.4 59.7198 445.3 59.4198 445.21 59.1198C445.12 58.8198 445.05 58.5698 445.01 58.3698C444.95 58.6098 444.88 58.8798 444.79 59.1898C444.7 59.4998 444.62 59.7898 444.53 60.0598C444.44 60.3298 444.39 60.5397 444.35 60.6797L443.23 63.9498H446.8L445.7 60.6797V60.6698Z" fill="#505052"/>
<path d="M452.63 69.2493V56.5693H454.9V67.3393H460.19V69.2593H452.62L452.63 69.2493Z" fill="#505052"/>
<path d="M474.23 69.2493H467.02V56.5693H474.23V58.4693H469.29V61.6993H473.91V63.5993H469.29V67.3293H474.23V69.2493Z" fill="#505052"/>
<path d="M487.71 69.2493H484.89L478.89 59.2993H478.82C478.86 59.8293 478.89 60.4093 478.92 61.0093C478.95 61.6193 478.97 62.2293 478.98 62.8493V69.2493H476.94V56.5693H479.75L485.74 66.4493H485.79C485.77 65.9793 485.74 65.4293 485.72 64.8093C485.7 64.1893 485.68 63.5993 485.67 63.0193V56.5693H487.73V69.2493H487.71Z" fill="#505052"/>
<path d="M496.08 62.2796H500.88V68.7296C500.21 68.9396 499.51 69.1096 498.8 69.2396C498.09 69.3596 497.28 69.4296 496.39 69.4296C494.47 69.4296 493 68.8596 491.97 67.7196C490.94 66.5796 490.42 64.9696 490.42 62.8896C490.42 61.5796 490.68 60.4296 491.19 59.4496C491.7 58.4696 492.46 57.7196 493.44 57.1896C494.42 56.6596 495.62 56.3896 497.03 56.3896C497.72 56.3896 498.38 56.4596 499.03 56.5996C499.68 56.7396 500.26 56.9296 500.8 57.1496L500.02 59.0096C499.61 58.8196 499.14 58.6496 498.62 58.5096C498.1 58.3696 497.55 58.2996 496.99 58.2996C496.13 58.2996 495.38 58.4896 494.75 58.8696C494.12 59.2496 493.64 59.7896 493.3 60.4796C492.96 61.1696 492.79 61.9896 492.79 62.9196C492.79 63.8496 492.92 64.6096 493.18 65.2996C493.44 65.9896 493.86 66.5296 494.43 66.9196C495 67.3096 495.74 67.5096 496.65 67.5096C497.1 67.5096 497.48 67.4896 497.79 67.4396C498.1 67.3896 498.39 67.3396 498.66 67.2796V64.2196H496.1V62.2796H496.08Z" fill="#505052"/>
<path d="M508.21 69.2496H502.88V67.9496L504.41 67.3796V58.4496L502.88 57.8596V56.5596H508.21V57.8596L506.68 58.4496V67.3796L508.21 67.9496V69.2496Z" fill="#505052"/>
<path d="M521.27 69.2493H518.45L512.45 59.2993H512.38C512.42 59.8293 512.45 60.4093 512.48 61.0093C512.51 61.6193 512.53 62.2293 512.54 62.8493V69.2493H510.5V56.5693H513.31L519.3 66.4493H519.35C519.33 65.9793 519.3 65.4293 519.28 64.8093C519.26 64.1893 519.24 63.5993 519.23 63.0193V56.5693H521.29V69.2493H521.27Z" fill="#505052"/>
<path d="M531.79 69.2493H524.58V56.5693H531.79V58.4693H526.85V61.6993H531.47V63.5993H526.85V67.3293H531.79V69.2493Z" fill="#505052"/>
<path d="M541.7 69.2493H534.49V56.5693H541.7V58.4693H536.76V61.6993H541.38V63.5993H536.76V67.3293H541.7V69.2493Z" fill="#505052"/>
<path d="M548.01 56.5596C549.68 56.5596 550.92 56.8696 551.71 57.4796C552.5 58.0896 552.91 59.0296 552.91 60.2896C552.91 60.9096 552.8 61.4296 552.56 61.8696C552.33 62.3096 552.03 62.6696 551.66 62.9596C551.29 63.2496 550.9 63.4796 550.47 63.6596L554.11 69.2396H551.55L548.51 64.2296H546.66V69.2396H544.39V56.5596H548H548.01ZM547.87 58.4696H546.68V62.3796H547.94C548.88 62.3796 549.55 62.2096 549.97 61.8696C550.39 61.5296 550.6 61.0296 550.6 60.3696C550.6 59.7096 550.38 59.1896 549.93 58.8996C549.49 58.6096 548.8 58.4596 547.86 58.4596L547.87 58.4696Z" fill="#505052"/>
<path d="M560.17 69.2496H554.84V67.9496L556.37 67.3796V58.4496L554.84 57.8596V56.5596H560.17V57.8596L558.64 58.4496V67.3796L560.17 67.9496V69.2496Z" fill="#505052"/>
<path d="M573.23 69.2493H570.41L564.41 59.2993H564.34C564.38 59.8293 564.41 60.4093 564.44 61.0093C564.47 61.6193 564.49 62.2293 564.5 62.8493V69.2493H562.46V56.5693H565.27L571.26 66.4493H571.31C571.29 65.9793 571.26 65.4293 571.24 64.8093C571.22 64.1893 571.2 63.5993 571.19 63.0193V56.5693H573.25V69.2493H573.23Z" fill="#505052"/>
<path d="M581.6 62.2796H586.4V68.7296C585.73 68.9396 585.03 69.1096 584.32 69.2396C583.61 69.3596 582.8 69.4296 581.91 69.4296C579.99 69.4296 578.52 68.8596 577.49 67.7196C576.46 66.5796 575.94 64.9696 575.94 62.8896C575.94 61.5796 576.2 60.4296 576.71 59.4496C577.22 58.4696 577.98 57.7196 578.96 57.1896C579.94 56.6596 581.14 56.3896 582.55 56.3896C583.24 56.3896 583.9 56.4596 584.55 56.5996C585.2 56.7396 585.78 56.9296 586.32 57.1496L585.54 59.0096C585.13 58.8196 584.66 58.6496 584.14 58.5096C583.62 58.3696 583.07 58.2996 582.51 58.2996C581.65 58.2996 580.9 58.4896 580.27 58.8696C579.64 59.2496 579.16 59.7896 578.82 60.4796C578.48 61.1696 578.31 61.9896 578.31 62.9196C578.31 63.8496 578.44 64.6096 578.7 65.2996C578.96 65.9896 579.38 66.5296 579.95 66.9196C580.52 67.3096 581.26 67.5096 582.17 67.5096C582.62 67.5096 583 67.4896 583.31 67.4396C583.62 67.3896 583.91 67.3396 584.18 67.2796V64.2196H581.62V62.2796H581.6Z" fill="#505052"/>
</svg>
