<svg version="1.2" xmlns="http://www.w3.org/2000/svg" viewBox="0 0 229 77" width="80" height="27">
	<style>
		.s0 { fill: #ffffff } 
	</style>
	<path class="s0" d="m141.35 30.09h-20.25v46.33h20.25z"/>
	<path class="s0" d="m104.26 56.16c-1.89 0-3.74 0.76-4.93 2.22-1.33 1.64-3.36 2.69-5.63 2.69-2.27 0-4.31-1.05-5.63-2.69-1.19-1.46-3.03-2.22-4.93-2.22h-14.51v5.46h-8.24v-1.5h6.12v-7.17h-7.17v3.2h-11.42v8.1h-8.25v-2.64h5.56v-8.24h-8.25v8.24h0.57v3.84c0 6.05 4.91 10.94 10.96 10.94h43.55c10.99 0 19.88-8.91 19.88-19.88v-0.36h-7.68zm-47.01 8.16h-5.82v-5.81h5.82zm18.54 8.36h-6.91v-6.91h6.91z"/>
	<path class="s0" d="m214.43 4.01h-158.64c-2.19 0-4.31 0.36-6.27 1.02v6.15h-9.01c-1.59 1.89-2.81 4.07-3.58 6.46h6.56v6.63h1.57c1.72 0 3.33-0.72 4.55-1.93 1.31-1.31 3.1-2.12 5.1-2.12 2 0 3.81 0.81 5.1 2.1 1.22 1.22 2.83 1.95 4.55 1.95h94.24c1.69 0 3.31-0.69 4.5-1.89 1.31-1.33 3.14-2.15 5.15-2.15 2.01 0 3.84 0.83 5.15 2.15 1.19 1.21 2.81 1.89 4.5 1.89h47.38v-9.41c0-6-4.86-10.85-10.84-10.85zm-152.45 12.44h-5.81v-5.81h5.81z"/>
	<path class="s0" d="m212.86 58.38c-1.33 1.64-3.36 2.69-5.63 2.69-2.27 0-4.3-1.05-5.63-2.69-1.19-1.47-3.04-2.22-4.93-2.22h-45.58v9.3c0 6.05 4.9 10.95 10.95 10.95h43.56c10.98 0 19.89-8.9 19.89-19.89v-0.36h-7.69c-1.89 0-3.74 0.76-4.93 2.22z"/>
	<path class="s0" d="m169.55 50.34h28.14c1.67 0 3.31-0.57 4.51-1.73 1.3-1.26 3.08-2.03 5.03-2.03 1.95 0 3.73 0.77 5.03 2.03 1.2 1.16 2.85 1.73 4.51 1.73h8.5v-0.36c0-10.98-8.9-19.89-19.89-19.89h-26.95c-1.85 0-3.57 0.85-4.8 2.22-1.32 1.48-3.25 2.4-5.39 2.4-2.14 0-4.06-0.93-5.39-2.4-1.23-1.38-2.95-2.22-4.8-2.22h-8.39v0.36c0 10.98 8.9 19.89 19.89 19.89z"/>
	<path class="s0" d="m31.8 10.97h-6.33v6.33h6.33z"/>
	<path class="s0" d="m13.74 10.97h-6.33v6.33h6.33z"/>
	<path class="s0" d="m46.8 8.23v-2.07-5.23-0.93h-8.24v0.93 7.3h4.98z"/>
	<path class="s0" d="m40.46 25.87v-1.6-4.49h-4.14-1.08-1.74v6.96h6.96z"/>
	<path class="s0" d="m35.65 42.09h-9.51v8.06h9.51z"/>
	<path class="s0" d="m18.95 48.9h-7.19v7.19h7.19z"/>
	<path class="s0" d="m26.14 56.24h-7.19v7.19h7.19z"/>
	<path class="s0" d="m34.02 65.77h-6.91v6.91h6.91z"/>
	<path class="s0" d="m7.19 56.24h-7.19v7.19h7.19z"/>
	<path class="s0" d="m28.8 27.32h-6.97v6.97h6.97z"/>
	<path class="s0" d="m10.57 27.32h-6.97v6.97h6.97z"/>
	<path class="s0" d="m21.69 20.34h-6.97v6.97h6.97z"/>
	<path class="s0" d="m21.69 34.29h-6.97v6.97h6.97z"/>
	<path class="s0" d="m111.73 49.98v0.36h-8.49c-1.67 0-3.31-0.57-4.51-1.72-1.31-1.27-3.08-2.03-5.03-2.03-1.95 0-3.72 0.76-5.03 2.03-1.21 1.15-2.84 1.72-4.51 1.72h-20.33v-4.12h-5.81v4.12h-2q-0.98 0-1.95-0.1v-10.54h-10.94v2.21h8.87v8.25h-9.34v-4.94c-4.01-3.65-6.55-8.91-6.55-14.76v-0.36h8.41c1.84 0 3.57 0.86 4.79 2.24 1.33 1.46 3.26 2.39 5.39 2.39 2.13 0 4.07-0.93 5.39-2.39 1.22-1.38 2.95-2.24 4.79-2.24h26.96c10.97 0 19.88 8.91 19.88 19.9z"/>
	<path class="s0" d="m284.04 12.2v29.12h-5.84v-18.94l-7.8 18.94h-4.42l-7.84-18.94v18.94h-5.84v-29.12h6.63l9.26 21.65 9.26-21.65z"/>
	<path class="s0" d="m300.85 12.2v18.02q0 2.96 1.54 4.53 1.54 1.56 4.34 1.56 2.82 0 4.38-1.56 1.54-1.56 1.54-4.53v-18.02h5.88v17.98q0 3.72-1.61 6.28-1.6 2.57-4.3 3.86-2.69 1.29-5.99 1.29c-2.2 0-4.14-0.43-5.9-1.29q-2.65-1.29-4.19-3.86-1.54-2.56-1.54-6.28v-17.98h5.84z"/>
	<path class="s0" d="m318.53 4.18h-5.88v4.91h5.88z"/>
	<path class="s0" d="m479.56 4.18h-5.88v4.91h5.88z"/>
	<path class="s0" d="m551.6 4.18h-5.88v4.91h5.88z"/>
	<path class="s0" d="m300.89 4.18h-5.88v4.91h5.88z"/>
	<path class="s0" d="m353.62 12.2v29.12h-5.84v-12.39h-12.47v12.39h-5.84v-29.12h5.84v11.97h12.47v-11.97z"/>
	<path class="s0" d="m385.46 13.58q3.23 1.88 5.03 5.28 1.79 3.4 1.79 7.82 0 4.42-1.77 7.8-1.77 3.37-4.98 5.26-3.21 1.88-7.43 1.88c-2.81 0-5.23-0.56-7.36-1.67q-3.2-1.67-4.94-4.84-1.75-3.17-1.75-7.55 0-1.5 0.17-2.71h21.82q-0.21-3.59-2.4-5.71-2.19-2.13-5.53-2.13-2.55 0-4.42 1.15-1.88 1.14-2.71 3.19h-6.51q1.38-4.38 4.98-7.01 3.62-2.63 8.61-2.63 4.17 0 7.4 1.88zm-1.96 20.86q2.24-1.83 2.52-5.01h-15.93q0.12 3.09 2.34 4.96 2.21 1.88 5.63 1.88 3.21 0 5.44-1.83z"/>
	<path class="s0" d="m427.45 41.32h-5.84l-13.22-19.98v19.98h-5.84v-29.16h5.84l13.22 20.02v-20.02h5.84z"/>
	<path class="s0" d="m456.75 14q3.49 1.8 5.38 5.11 1.9 3.32 1.9 7.7 0 4.38-1.9 7.65-1.9 3.27-5.38 5.07-3.48 1.79-8.07 1.79h-10.18v-29.12h10.18q4.59 0 8.07 1.79zm-1.19 19.85q2.5-2.51 2.5-7.05 0-4.55-2.5-7.11-2.5-2.57-7.09-2.57h-4.13v19.23h4.13q4.59 0 7.09-2.5z"/>
	<path class="s0" d="m479.54 12.2v29.12h-5.84v-29.12z"/>
	<path class="s0" d="m495.17 40.57q-2.44-1.04-3.86-3-1.42-1.96-1.46-4.63h6.26q0.12 1.79 1.27 2.84 1.14 1.04 3.15 1.04 2.02 0 3.21-0.98 1.17-0.98 1.17-2.56 0-1.29-0.79-2.13-0.8-0.84-1.98-1.31-1.18-0.48-3.27-1.06-2.84-0.84-4.61-1.65-1.77-0.81-3.05-2.46-1.27-1.65-1.27-4.4 0-2.59 1.29-4.5 1.29-1.92 3.63-2.94 2.34-1.02 5.34-1.02 4.5 0 7.32 2.19 2.81 2.19 3.11 6.11h-6.42q-0.09-1.5-1.27-2.48-1.19-0.98-3.15-0.98-1.71 0-2.73 0.88-1.02 0.87-1.02 2.54 0 1.17 0.77 1.94 0.76 0.77 1.92 1.25 1.14 0.48 3.23 1.1 2.84 0.83 4.63 1.67 1.79 0.84 3.09 2.5 1.29 1.66 1.29 4.38 0 2.33-1.21 4.34-1.21 2-3.55 3.19-2.34 1.19-5.55 1.19-3.05 0-5.49-1.04z"/>
	<path class="s0" d="m527.14 36.69h9.6v4.63h-15.43v-29.12h5.84v24.48z"/>
	<path class="s0" d="m551.58 12.2v29.12h-5.84v-29.12z"/>
	<path class="s0" d="m579.07 41.32l-10.6-12.97v12.97h-5.84v-29.12h5.84v13.06l10.6-13.06h7.05l-12.01 14.43 12.35 14.68h-7.38z"/>
	<path class="s0" d="m259.59 69.25h-7.21v-12.68h7.21v1.9h-4.94v3.23h4.62v1.9h-4.62v3.73h4.94z"/>
	<path class="s0" d="m271.92 69.25h-2.59l-3.11-5.06-3.13 5.06h-2.42l4.21-6.57-3.94-6.11h2.5l2.88 4.73 2.86-4.73h2.43l-3.96 6.2 4.26 6.48z"/>
	<path class="s0" d="m277.37 56.56q2.48 0 3.6 1.03 1.13 1.03 1.13 2.84 0 1.08-0.46 2.03-0.47 0.94-1.55 1.53-1.08 0.58-2.96 0.58h-1.26v4.67h-2.27v-12.68h3.78zm-0.14 1.89h-1.37v4.24h1.03q1.38 0 2.14-0.51 0.76-0.51 0.76-1.66 0-1.05-0.62-1.56-0.62-0.51-1.94-0.51z"/>
	<path class="s0" d="m291.8 69.25h-7.21v-12.68h7.21v1.9h-4.94v3.23h4.62v1.9h-4.62v3.73h4.94z"/>
	<path class="s0" d="m298.1 56.56q2.51 0 3.7 0.92 1.19 0.92 1.2 2.81 0 0.92-0.35 1.58-0.35 0.66-0.9 1.09-0.55 0.43-1.19 0.7l3.64 5.58h-2.56l-3.04-5.01h-1.85v5.01h-2.27v-12.68h3.61zm-0.14 1.91h-1.19v3.91h1.26q1.4 0 2.03-0.51 0.63-0.51 0.63-1.5c0-0.66-0.22-1.18-0.67-1.47q-0.66-0.44-2.07-0.44z"/>
	<path class="s0" d="m310.52 69.25h-2.27v-10.76h-3.64v-1.92h9.56v1.92h-3.64v10.76z"/>
	<path class="s0" d="m323.47 65.78q0 1.69-1.23 2.67-1.23 0.98-3.39 0.98c-1.44 0-2.58-0.24-3.55-0.71v-2.13q0.8 0.35 1.76 0.65 0.96 0.29 1.95 0.29 1.14 0 1.67-0.44 0.53-0.44 0.53-1.17-0.01-0.8-0.67-1.26-0.68-0.46-1.97-1.01-0.78-0.34-1.49-0.8-0.71-0.47-1.17-1.17-0.46-0.71-0.46-1.81 0-1.64 1.15-2.55 1.14-0.92 3.07-0.92 1.01 0 1.89 0.21 0.88 0.21 1.77 0.6l-0.73 1.83q-0.8-0.34-1.52-0.53-0.72-0.2-1.48-0.2-0.93 0-1.4 0.42-0.48 0.42-0.48 1.08 0 0.53 0.27 0.89 0.26 0.36 0.83 0.66 0.55 0.3 1.45 0.69 1.01 0.44 1.74 0.92 0.72 0.47 1.11 1.16 0.38 0.68 0.38 1.67z"/>
	<path class="s0" d="m334.78 69.25h-5.33v-1.3l1.53-0.57v-8.93l-1.53-0.59v-1.3h5.33v1.3l-1.53 0.59v8.93l1.53 0.57z"/>
	<path class="s0" d="m347.84 69.25h-2.82l-6-9.95h-0.07q0.06 0.8 0.1 1.71 0.05 0.91 0.06 1.84v6.4h-2.04v-12.68h2.81l5.99 9.88h0.05q-0.03-0.71-0.07-1.64-0.03-0.93-0.05-1.79v-6.45h2.06v12.68z"/>
	<path class="s0" d="m360.06 69.25h-5.33v-1.3l1.53-0.57v-8.93l-1.53-0.59v-1.3h5.33v1.3l-1.53 0.59v8.93l1.53 0.57z"/>
	<path class="s0" d="m373.12 69.25h-2.82l-6-9.95h-0.07q0.06 0.8 0.1 1.71 0.04 0.91 0.06 1.84v6.4h-2.04v-12.68h2.81l5.99 9.88h0.05q-0.04-0.71-0.07-1.64-0.03-0.93-0.05-1.79v-6.45h2.06v12.68z"/>
	<path class="s0" d="m386.8 62.78q0 3.21-1.79 4.84-1.8 1.62-5.01 1.63h-3.57v-12.68h3.94q1.96 0 3.4 0.71 1.44 0.71 2.24 2.09 0.79 1.38 0.79 3.42zm-2.38 0.07q0-2.28-1.04-3.34-1.04-1.07-3.01-1.07h-1.67v8.9h1.37q4.35 0 4.35-4.49z"/>
	<path class="s0" d="m399.55 64.77q0 1.32-0.56 2.37-0.56 1.05-1.7 1.67-1.14 0.61-2.88 0.61-2.48 0-3.75-1.29-1.28-1.29-1.28-3.4v-8.17h2.27v7.94q0 1.56 0.71 2.27 0.71 0.71 2.11 0.71 1.47 0 2.14-0.77 0.66-0.77 0.67-2.23v-7.92h2.26v8.21z"/>
	<path class="s0" d="m410.14 65.78q0 1.69-1.23 2.67-1.23 0.98-3.39 0.98c-1.44 0-2.58-0.24-3.55-0.71v-2.13q0.8 0.35 1.76 0.65 0.96 0.29 1.95 0.29 1.14 0 1.67-0.44 0.53-0.44 0.53-1.17-0.01-0.8-0.67-1.26-0.68-0.46-1.97-1.01-0.78-0.34-1.49-0.8-0.7-0.47-1.17-1.17-0.46-0.71-0.46-1.81 0-1.64 1.15-2.55 1.15-0.92 3.07-0.92 1.01 0 1.89 0.21 0.89 0.21 1.77 0.6l-0.73 1.83q-0.8-0.34-1.52-0.53-0.72-0.2-1.48-0.2-0.93 0-1.4 0.42-0.48 0.42-0.48 1.08 0 0.53 0.27 0.89 0.26 0.36 0.83 0.66 0.55 0.3 1.45 0.69 1.01 0.44 1.74 0.92 0.72 0.47 1.11 1.16 0.38 0.68 0.38 1.67z"/>
	<path class="s0" d="m417.09 69.25h-2.27v-10.76h-3.64v-1.92h9.56v1.92h-3.64v10.76z"/>
	<path class="s0" d="m426.27 56.56q2.51 0 3.7 0.92 1.19 0.92 1.2 2.81 0.01 0.92-0.35 1.58-0.34 0.66-0.9 1.09-0.55 0.43-1.19 0.7l3.64 5.58h-2.56l-3.04-5.01h-1.85v5.01h-2.27v-12.68h3.61zm-0.14 1.91h-1.19v3.91h1.26q1.41 0 2.03-0.51 0.63-0.51 0.63-1.5c0-0.66-0.22-1.18-0.67-1.47q-0.66-0.44-2.07-0.44z"/>
	<path class="s0" d="m438.44 69.25h-5.33v-1.3l1.53-0.57v-8.93l-1.53-0.59v-1.3h5.33v1.3l-1.53 0.59v8.93l1.53 0.57z"/>
	<path class="s0" d="m448.55 69.25l-1.15-3.36h-4.78l-1.14 3.36h-2.42l4.65-12.74h2.59l4.65 12.74h-2.42zm-2.85-8.58q-0.08-0.25-0.21-0.67-0.14-0.43-0.28-0.88-0.14-0.45-0.2-0.75-0.09 0.36-0.22 0.82-0.13 0.46-0.26 0.87-0.13 0.41-0.18 0.62l-1.12 3.27h3.57l-1.1-3.27z"/>
	<path class="s0" d="m452.63 69.25v-12.68h2.27v10.77h5.29v1.92h-7.57z"/>
	<path class="s0" d="m474.23 69.25h-7.21v-12.68h7.21v1.9h-4.94v3.23h4.62v1.9h-4.62v3.73h4.94z"/>
	<path class="s0" d="m487.71 69.25h-2.82l-6-9.95h-0.07q0.06 0.8 0.1 1.71 0.04 0.91 0.06 1.84v6.4h-2.04v-12.68h2.81l5.99 9.88h0.05q-0.03-0.71-0.07-1.64-0.03-0.93-0.05-1.79v-6.45h2.06v12.68z"/>
	<path class="s0" d="m496.08 62.28h4.8v6.45q-1.01 0.31-2.08 0.51-1.07 0.18-2.41 0.19-2.88 0-4.42-1.71-1.55-1.71-1.55-4.83 0-1.97 0.77-3.44 0.77-1.47 2.25-2.26 1.47-0.8 3.59-0.8 1.03 0 2 0.21 0.97 0.21 1.77 0.55l-0.78 1.86q-0.62-0.29-1.4-0.5-0.78-0.21-1.63-0.21-1.29 0-2.24 0.57-0.94 0.57-1.45 1.61-0.51 1.04-0.51 2.44c0 0.93 0.13 1.69 0.39 2.38q0.39 1.03 1.25 1.62 0.85 0.59 2.22 0.59 0.68 0 1.14-0.07 0.47-0.07 0.87-0.16v-3.06h-2.56v-1.94z"/>
	<path class="s0" d="m508.21 69.25h-5.33v-1.3l1.53-0.57v-8.93l-1.53-0.59v-1.3h5.33v1.3l-1.53 0.59v8.93l1.53 0.57z"/>
	<path class="s0" d="m521.27 69.25h-2.82l-6-9.95h-0.07q0.06 0.8 0.1 1.71 0.04 0.91 0.06 1.84v6.4h-2.04v-12.68h2.81l5.99 9.88h0.05q-0.03-0.71-0.07-1.64-0.03-0.93-0.05-1.79v-6.45h2.06v12.68z"/>
	<path class="s0" d="m531.79 69.25h-7.21v-12.68h7.21v1.9h-4.94v3.23h4.62v1.9h-4.62v3.73h4.94z"/>
	<path class="s0" d="m541.7 69.25h-7.21v-12.68h7.21v1.9h-4.94v3.23h4.62v1.9h-4.62v3.73h4.94z"/>
	<path class="s0" d="m548.01 56.56q2.51 0 3.7 0.92 1.19 0.92 1.2 2.81 0 0.92-0.35 1.58-0.34 0.66-0.9 1.09-0.55 0.43-1.19 0.7l3.64 5.58h-2.56l-3.04-5.01h-1.85v5.01h-2.27v-12.68h3.61zm-0.14 1.91h-1.19v3.91h1.26q1.4 0 2.03-0.51 0.63-0.51 0.63-1.5c0-0.66-0.22-1.18-0.67-1.47q-0.66-0.44-2.07-0.44z"/>
	<path class="s0" d="m560.17 69.25h-5.33v-1.3l1.53-0.57v-8.93l-1.53-0.59v-1.3h5.33v1.3l-1.53 0.59v8.93l1.53 0.57z"/>
	<path class="s0" d="m573.23 69.25h-2.82l-6-9.95h-0.07q0.06 0.8 0.1 1.71 0.04 0.91 0.06 1.84v6.4h-2.04v-12.68h2.81l5.99 9.88h0.05q-0.04-0.71-0.07-1.64-0.03-0.93-0.05-1.79v-6.45h2.06v12.68z"/>
	<path class="s0" d="m581.6 62.28h4.8v6.45q-1.01 0.31-2.08 0.51-1.07 0.18-2.41 0.19-2.88 0-4.42-1.71-1.55-1.71-1.55-4.83 0-1.97 0.77-3.44 0.77-1.47 2.25-2.26 1.47-0.8 3.59-0.8 1.03 0 2 0.21 0.97 0.21 1.77 0.55l-0.78 1.86q-0.62-0.29-1.4-0.5-0.79-0.21-1.63-0.21-1.29 0-2.24 0.57-0.94 0.57-1.45 1.61-0.51 1.04-0.51 2.44c0 0.93 0.13 1.69 0.39 2.38q0.39 1.03 1.25 1.62 0.86 0.59 2.22 0.59 0.68 0 1.14-0.07 0.47-0.07 0.87-0.16v-3.06h-2.56v-1.94z"/>
</svg>